<?xml version="1.0" encoding="utf-8"?>
<!DOCTYPE svg PUBLIC "-//W3C//DTD SVG 1.1//EN" "http://www.w3.org/Graphics/SVG/1.1/DTD/svg11.dtd">
<svg version="1.1" xmlns="http://www.w3.org/2000/svg"
     width="130" height="67" viewBox="0 0 130 67" x="0px" y="0px">
  <path fill="#00563f"
        d="M 49.6,67.000002 C 50.6,67.000002 51.4,66.500002 51.4,65.500002 L 51.4,65.500002 C 51.4,64.700002 50.9,64.300002 49.9,64.100002 49.1,63.900002 48.9,63.800002 48.9,63.500002 L 48.9,63.500002 C 48.9,63.300002 49.1,63.100002 49.5,63.100002 49.9,63.100002 50.3,63.300002 50.7,63.600002 L 51.2,62.800002 C 50.7,62.400002 50.1,62.200002 49.4,62.200002 48.4,62.200002 47.7,62.800002 47.7,63.600002 L 47.7,63.600002 C 47.7,64.600002 48.3,64.800002 49.3,65.100002 50.1,65.300002 50.3,65.400002 50.3,65.700002 L 50.3,65.700002 C 50.3,66.000002 50,66.200002 49.6,66.200002 49.1,66.200002 48.6,66.000002 48.2,65.600002 L 47.6,66.300002 C 48.1,66.800002 48.9,67.000002 49.6,67.000002 M 52.1,62.900002 53.2,62.900002 53.2,62.000002 52.1,62.000002 52.1,62.900002 Z M 52.1,66.900002 53.1,66.900002 53.1,63.200002 52.1,63.200002 52.1,66.900002 Z M 54.1,66.900002 55.1,66.900002 55.1,64.800002 C 55.1,64.300002 55.4,64.100002 55.8,64.100002 56.2,64.100002 56.4,64.400002 56.4,64.800002 L 56.4,66.900002 57.4,66.900002 57.4,64.500002 C 57.4,63.700002 56.9,63.100002 56.2,63.100002 55.7,63.100002 55.4,63.400002 55.1,63.700002 L 55.1,63.200002 54.1,63.200002 54.1,66.900002 Z M 60,67.000002 C 60.7,67.000002 61.1,66.700002 61.5,66.300002 L 60.9,65.700002 C 60.6,65.900002 60.4,66.100002 60.1,66.100002 59.5,66.100002 59.2,65.600002 59.2,65.100002 L 59.2,65.100002 C 59.2,64.600002 59.6,64.100002 60.1,64.100002 60.5,64.100002 60.7,64.300002 60.9,64.500002 L 61.5,63.800002 C 61.2,63.400002 60.7,63.200002 60,63.200002 58.9,63.200002 58.1,64.100002 58.1,65.100002 L 58.1,65.100002 C 58.1,66.200002 58.9,67.000002 60,67.000002 M 63.8,67.000002 C 64.5,67.000002 65,66.700002 65.3,66.300002 L 64.7,65.800002 C 64.4,66.100002 64.2,66.200002 63.8,66.200002 63.3,66.200002 63,66.000002 62.9,65.500002 L 65.5,65.500002 C 65.5,65.400002 65.5,65.300002 65.5,65.200002 65.5,64.200002 64.9,63.200002 63.7,63.200002 62.6,63.200002 61.9,64.100002 61.9,65.100002 L 61.9,65.100002 C 61.9,66.300002 62.7,67.000002 63.8,67.000002 M 62.9,64.800002 C 63,64.300002 63.3,64.000002 63.7,64.000002 64.1,64.000002 64.4,64.300002 64.5,64.800002 L 62.9,64.800002 Z M 68.2,66.900002 69.2,66.900002 69.2,62.100002 68.5,62.100002 67.2,62.500002 67.4,63.400002 68.2,63.200002 68.2,66.900002 Z M 72,67.000002 C 73.1,67.000002 73.9,66.500002 73.9,65.600002 L 73.9,65.600002 C 73.9,65.000002 73.6,64.700002 73.1,64.500002 73.5,64.300002 73.7,64.000002 73.7,63.500002 L 73.7,63.500002 C 73.7,62.800002 73,62.200002 72,62.200002 71,62.200002 70.3,62.800002 70.3,63.500002 L 70.3,63.500002 C 70.3,64.000002 70.5,64.300002 70.9,64.500002 70.4,64.700002 70.1,65.100002 70.1,65.700002 L 70.1,65.700002 C 70.1,66.500002 70.9,67.000002 72,67.000002 M 72,64.100002 C 71.6,64.100002 71.3,63.800002 71.3,63.500002 L 71.3,63.500002 C 71.3,63.200002 71.6,62.900002 72,62.900002 72.4,62.900002 72.7,63.200002 72.7,63.500002 L 72.7,63.500002 C 72.7,63.900002 72.4,64.100002 72,64.100002 M 72,66.100002 C 71.5,66.100002 71.2,65.800002 71.2,65.500002 L 71.2,65.500002 C 71.2,65.100002 71.5,64.900002 72,64.900002 72.5,64.900002 72.8,65.100002 72.8,65.500002 L 72.8,65.500002 C 72.8,65.900002 72.5,66.100002 72,66.100002 M 76.1,67.000002 C 77.5,67.000002 78.2,65.900002 78.2,64.400002 L 78.2,64.400002 C 78.2,63.500002 78,62.900002 77.6,62.600002 77.2,62.200002 76.9,62.100002 76.2,62.100002 75.1,62.100002 74.4,62.800002 74.4,63.800002 L 74.4,63.800002 C 74.4,64.800002 75.1,65.400002 76.1,65.400002 76.5,65.400002 76.8,65.300002 77.1,65.100002 77,65.700002 76.7,66.200002 76.1,66.200002 75.7,66.200002 75.4,66.100002 75.1,65.800002 L 74.5,66.600002 C 75,66.800002 75.4,67.000002 76.1,67.000002 M 76.3,64.400002 C 75.8,64.400002 75.5,64.100002 75.5,63.700002 L 75.5,63.700002 C 75.5,63.300002 75.8,63.000002 76.3,63.000002 76.8,63.000002 77.1,63.300002 77.1,63.700002 L 77.1,63.700002 C 77.2,64.100002 76.8,64.400002 76.3,64.400002 M 80.6,67.000002 C 82,67.000002 82.7,65.900002 82.7,64.400002 L 82.7,64.400002 C 82.7,63.500002 82.5,62.900002 82.1,62.600002 81.7,62.200002 81.4,62.100002 80.7,62.100002 79.6,62.100002 78.9,62.800002 78.9,63.800002 L 78.9,63.800002 C 78.9,64.800002 79.6,65.400002 80.6,65.400002 81,65.400002 81.3,65.300002 81.6,65.100002 81.5,65.700002 81.2,66.200002 80.6,66.200002 80.2,66.200002 79.9,66.100002 79.6,65.800002 L 79,66.600002 C 79.4,66.800002 79.9,67.000002 80.6,67.000002 M 80.8,64.400002 C 80.3,64.400002 80,64.100002 80,63.700002 L 80,63.700002 C 80,63.300002 80.3,63.000002 80.8,63.000002 81.3,63.000002 81.6,63.300002 81.6,63.700002 L 81.6,63.700002 C 81.6,64.100002 81.3,64.400002 80.8,64.400002"
  />
  <path fill="#00563f"
        d="M 67.8,37.600002 C 67.8,39.100002 66.6,40.300002 65.1,40.300002 63.6,40.300002 62.4,39.100002 62.4,37.600002 62.4,36.100002 63.6,34.900002 65.1,34.900002 66.6,34.800002 67.8,36.100002 67.8,37.600002 M 125.3,48.500002 C 125.1,48.400002 125,48.400002 124.8,48.300002 123.3,47.800002 122.4,47.500002 122.4,46.800002 L 122.4,46.700002 C 122.4,46.100002 123.1,45.700002 123.9,45.700002 124.9,45.700002 125.9,46.000002 127.4,46.800002 L 127.4,46.800002 C 127.4,46.800002 127.5,46.800002 127.5,46.800002 127.6,46.800002 127.6,46.800002 127.7,46.700002 L 129.3,43.900002 C 129.3,43.900002 129.3,43.800002 129.3,43.800002 129.3,43.700002 129.3,43.700002 129.2,43.600002 127.5,42.700002 125.9,42.200002 124,42.200002 120.4,42.200002 118,44.000002 118,46.900002 L 118,47.000002 C 118,49.900002 120.3,51.000002 122.8,51.700002 123,51.800002 123.2,51.800002 123.4,51.900002 125,52.400002 125.6,52.700002 125.6,53.400002 L 125.6,53.500002 C 125.5,54.100002 125,54.400002 124,54.400002 122.5,54.400002 121.2,53.900002 119.5,52.800002 L 119.5,52.800002 C 119.5,52.800002 119.4,52.800002 119.4,52.800002 119.3,52.800002 119.3,52.800002 119.2,52.900002 L 117.5,55.600002 C 117.5,55.600002 117.5,55.700002 117.5,55.700002 117.5,55.800002 117.5,55.800002 117.6,55.900002 119.6,57.300002 121.5,58.100002 123.7,58.100002 127.7,58.100002 130,56.400002 130,53.300002 L 130,53.200002 C 130.1,50.500002 127.7,49.300002 125.3,48.500002 M 81.8,53.200002 81.8,53.200002 C 81.8,56.300002 79.4,58.100002 75.5,58.100002 73.2,58.100002 71.4,57.300002 69.4,55.900002 69.3,55.900002 69.3,55.800002 69.3,55.700002 69.3,55.700002 69.3,55.600002 69.3,55.600002 L 71,52.900002 C 71,52.800002 71.1,52.800002 71.2,52.800002 71.2,52.800002 71.3,52.800002 71.3,52.800002 L 71.3,52.800002 C 73,53.900002 74.2,54.400002 75.8,54.400002 76.8,54.400002 77.4,54.100002 77.4,53.500002 L 77.4,53.400002 C 77.4,52.700002 76.7,52.300002 75.2,51.900002 75,51.800002 74.8,51.800002 74.6,51.700002 72,51.000002 69.8,49.900002 69.8,47.000002 L 69.8,47.000002 C 69.8,44.100002 72.1,42.300002 75.8,42.300002 77.6,42.300002 79.3,42.800002 81,43.700002 81.1,43.700002 81.1,43.800002 81.1,43.900002 81.1,43.900002 81.1,44.000002 81.1,44.000002 L 79.5,46.800002 C 79.5,46.900002 79.4,46.900002 79.3,46.900002 79.3,46.900002 79.2,46.900002 79.2,46.900002 L 79.2,46.900002 C 77.7,46.200002 76.8,45.800002 75.7,45.800002 74.8,45.800002 74.2,46.200002 74.2,46.800002 L 74.2,46.900002 C 74.2,47.600002 75.1,47.900002 76.6,48.400002 76.8,48.500002 76.9,48.500002 77.1,48.600002 79.4,49.200002 81.8,50.400002 81.8,53.200002 M 56,57.900002 52,57.900002 C 51.9,57.900002 51.8,57.800002 51.8,57.700002 L 51.8,43.100002 C 51.8,43.000002 51.9,42.900002 52,42.900002 L 55.8,42.900002 C 55.9,42.900002 56,43.000002 56,43.100002 L 56,44.900002 C 57,43.500002 58.5,42.700002 60,42.700002 60.2,42.700002 60.4,42.700002 60.6,42.700002 60.7,42.700002 60.8,42.800002 60.8,42.900002 L 60.8,46.800002 C 60.8,46.900002 60.8,46.900002 60.7,47.000002 60.7,47.000002 60.6,47.100002 60.5,47.000002 60.4,47.000002 60.1,47.000002 59.8,47.000002 58.5,47.000002 57,47.700002 56.4,49.700002 56.3,50.300002 56.2,51.000002 56.2,51.800002 L 56.2,57.600002 C 56.2,57.800002 56.1,57.900002 56,57.900002 M 45.1,57.700002 45.1,51.900002 C 45.1,51.000002 45.2,50.300002 45.4,49.700002 46,47.700002 47.6,47.000002 48.8,47.000002 49.1,47.000002 49.4,47.000002 49.5,47.000002 49.6,47.000002 49.6,47.000002 49.7,47.000002 49.7,47.000002 49.8,46.900002 49.8,46.800002 L 49.8,42.900002 C 49.8,42.800002 49.7,42.700002 49.6,42.700002 49.5,42.700002 49.3,42.700002 49,42.700002 47.4,42.700002 45.9,43.500002 45,44.900002 L 45,43.100002 C 45,43.000002 44.9,42.900002 44.8,42.900002 L 41,42.900002 C 40.9,42.900002 40.8,43.000002 40.8,43.100002 L 40.8,57.700002 C 40.8,57.800002 40.9,57.900002 41,57.900002 L 45,57.900002 C 45.1,57.900002 45.1,57.800002 45.1,57.700002 M 20.1,57.900002 16.1,57.900002 C 16,57.900002 15.9,57.800002 15.9,57.700002 15.9,53.100002 15.5,47.900002 15.4,46.300002 14,48.200002 12.6,50.800002 11.5,53.300002 11.5,53.400002 11.4,53.400002 11.3,53.400002 L 9,53.400002 C 8.9,53.400002 8.8,53.400002 8.8,53.300002 7.7,50.800002 6.4,48.200002 4.9,46.300002 4.8,47.900002 4.4,53.100002 4.4,57.700002 4.4,57.800002 4.3,57.900002 4.2,57.900002 L 0.2,57.900002 C 0.1,57.900002 0,57.800002 0,57.700002 0,51.500002 0.5,43.300002 1.5,39.100002 1.5,39.000002 1.6,38.900002 1.7,38.900002 L 4.9,38.900002 C 5,38.900002 5,38.900002 5.1,39.000002 7.2,41.300002 8.9,43.900002 10.2,46.400002 11.5,43.800002 13.2,41.300002 15.3,39.000002 15.3,39.000002 15.4,38.900002 15.5,38.900002 L 18.7,38.900002 C 18.8,38.900002 18.9,39.000002 18.9,39.100002 19.9,43.300002 20.4,51.500002 20.4,57.700002 20.3,57.800002 20.2,57.900002 20.1,57.900002 M 115.7,57.700002 115.7,48.400002 C 115.7,44.600002 113.9,42.600002 110.4,42.600002 108.1,42.600002 106.6,43.700002 105.8,44.600002 L 105.8,43.100002 C 105.8,43.000002 105.7,42.900002 105.6,42.900002 L 101.8,42.900002 C 101.7,42.900002 101.6,43.000002 101.6,43.100002 L 101.6,57.700002 C 101.6,57.800002 101.7,57.900002 101.8,57.900002 L 105.8,57.900002 C 105.9,57.900002 106,57.800002 106,57.700002 L 106,51.000002 C 106,50.300002 106.1,49.700002 106.2,49.200002 106.7,47.600002 108,46.600002 109.6,46.600002 110.9,46.600002 111.4,47.200002 111.4,49.000002 L 111.4,57.600002 C 111.4,57.700002 111.5,57.800002 111.6,57.800002 L 115.5,57.800002 C 115.7,57.900002 115.7,57.800002 115.7,57.700002 M 91.5,46.400002 C 89.3,46.400002 87.7,48.100002 87.7,50.400002 87.7,52.700002 89.3,54.400002 91.5,54.400002 93.6,54.400002 95.2,52.700002 95.2,50.400002 95.2,48.100002 93.6,46.400002 91.5,46.400002 M 91.5,58.200002 C 86.8,58.200002 83.3,54.800002 83.3,50.400002 83.3,45.900002 86.8,42.600002 91.5,42.600002 96.2,42.600002 99.7,46.000002 99.7,50.400002 99.7,54.800002 96.2,58.200002 91.5,58.200002 M 67.3,57.700002 67.3,43.100002 C 67.3,43.000002 67.2,42.900002 67.1,42.900002 L 63.1,42.900002 C 63,42.900002 62.9,43.000002 62.9,43.100002 L 62.9,57.700002 C 62.9,57.800002 63,57.900002 63.1,57.900002 L 67.1,57.900002 C 67.2,57.900002 67.3,57.800002 67.3,57.700002 M 30.5,46.400002 C 28.3,46.400002 26.7,48.100002 26.7,50.400002 26.7,52.700002 28.3,54.400002 30.5,54.400002 32.6,54.400002 34.2,52.700002 34.2,50.400002 34.2,48.100002 32.6,46.400002 30.5,46.400002 M 30.5,58.200002 C 25.8,58.200002 22.3,54.800002 22.3,50.400002 22.3,45.900002 25.8,42.600002 30.5,42.600002 35.2,42.600002 38.7,46.000002 38.7,50.400002 38.6,54.800002 35.1,58.200002 30.5,58.200002"
  />
  <path fill="#ffc20e"
        d="M 77.8,36.700002 C 74.2,38.000002 71,35.600002 71,35.600002 71,35.600002 71.9,31.700002 75.5,30.400002 79.1,29.100002 82.3,31.500002 82.3,31.500002 82.3,31.500002 81.4,35.300002 77.8,36.700002 M 87.3,18.500002 C 87.3,18.500002 83.8,16.700002 80.4,18.600002 77.1,20.500002 76.9,24.500002 76.9,24.500002 76.9,24.500002 80.4,26.300002 83.8,24.400002 87.1,22.500002 87.3,18.500002 87.3,18.500002 M 72.2,27.300002 C 70.6,30.800002 66.7,31.300002 66.7,31.300002 66.7,31.300002 64.6,28.000002 66.2,24.500002 67.8,21.000002 71.7,20.500002 71.7,20.500002 71.7,20.500002 73.8,23.800002 72.2,27.300002 M 48.1,31.500002 C 48.1,31.500002 49,35.400002 52.6,36.700002 56.2,38.000002 59.4,35.600002 59.4,35.600002 59.4,35.600002 58.5,31.700002 54.9,30.400002 51.2,29.100002 48.1,31.500002 48.1,31.500002 M 49.8,18.600002 C 53.1,20.500002 53.3,24.500002 53.3,24.500002 53.3,24.500002 49.8,26.300002 46.4,24.400002 43.1,22.500002 42.9,18.500002 42.9,18.500002 42.9,18.500002 46.5,16.700002 49.8,18.600002 M 54.2,12.200002 C 54.2,12.200002 53.4,16.100002 56.1,18.800002 58.8,21.500002 62.7,20.700002 62.7,20.700002 62.7,20.700002 63.5,16.800002 60.8,14.100002 58.1,11.400002 54.2,12.200002 54.2,12.200002 M 68.4,6.4000015 C 68.4,10.300002 65.1,12.400002 65.1,12.400002 65.1,12.400002 61.8,10.300002 61.8,6.4000015 61.8,2.5000015 65.1,0.40000153 65.1,0.40000153 65,0.40000153 68.4,2.5000015 68.4,6.4000015 M 75,15.000002 C 75,16.600002 73.7,17.800002 72.2,17.800002 70.6,17.800002 69.4,16.500002 69.4,15.000002 69.4,13.500002 70.7,12.200002 72.2,12.200002 73.7,12.200002 75,13.400002 75,15.000002 M 62.4,26.500002 C 62.4,28.100002 61.1,29.300002 59.6,29.300002 58.1,29.300002 56.8,28.000002 56.8,26.500002 56.8,24.900002 58.1,23.700002 59.6,23.700002 61.1,23.700002 62.4,25.000002 62.4,26.500002"
  />
</svg>